<svg xmlns="http://www.w3.org/2000/svg" width="20.362" height="24.669" viewBox="0 0 20.362 24.669">
  <g id="home" transform="translate(-6.473 -4.325)">
    <path id="Path_128" data-name="Path 128" d="M22.706,12.091,13.984,2.369a1.066,1.066,0,0,0-1.606,0L3.656,12.1A2.588,2.588,0,0,0,3,13.867V24.205a2.386,2.386,0,0,0,2.138,2.467H21.224a2.386,2.386,0,0,0,2.138-2.467V13.867a2.681,2.681,0,0,0-.656-1.777ZM10.919,24.205V16.8h4.525v7.4Zm10.181,0H17.706V15.57a1.186,1.186,0,0,0-1.131-1.234H9.787A1.186,1.186,0,0,0,8.656,15.57v8.636H5.262V13.818L13.181,5l7.919,8.87Z" transform="translate(3.473 2.321)" fill="#fff"/>
  </g>
</svg>
