<svg xmlns="http://www.w3.org/2000/svg" xmlns:xlink="http://www.w3.org/1999/xlink" width="22" height="22" viewBox="0 0 22 22">
  <defs>
    <clipPath id="clip-path">
      <rect id="Rectangle_245" data-name="Rectangle 245" width="22" height="22" fill="#fff"/>
    </clipPath>
  </defs>
  <g id="Settings" clip-path="url(#clip-path)">
    <path id="Path_137" data-name="Path 137" d="M15.381,22.755a9.528,9.528,0,0,1-2.983.031.686.686,0,0,1-.5-.444L11.339,20.4a1.125,1.125,0,0,0-.449-.573L8.85,18.654a1.09,1.09,0,0,0-.719-.095l-1.921.515a.674.674,0,0,1-.632-.2A9.492,9.492,0,0,1,4.15,16.422a.687.687,0,0,1,.136-.652l1.445-1.506A1.126,1.126,0,0,0,6,13.588V11.232a1.089,1.089,0,0,0-.277-.67l-1.44-1.44a.668.668,0,0,1-.142-.646A11.436,11.436,0,0,1,5.557,6.039a.688.688,0,0,1,.633-.207l2.055.5a1.127,1.127,0,0,0,.721-.1l2.039-1.178a1.089,1.089,0,0,0,.442-.575l.519-1.939a.665.665,0,0,1,.489-.445,9.486,9.486,0,0,1,2.8.014.674.674,0,0,1,.488.448l.515,1.921a1.09,1.09,0,0,0,.441.575l2.04,1.178a1.09,1.09,0,0,0,.719.095l1.921-.515a.674.674,0,0,1,.632.2,9.523,9.523,0,0,1,1.466,2.552.677.677,0,0,1-.146.648l-1.352,1.351a1.089,1.089,0,0,0-.277.67v2.355a1.088,1.088,0,0,0,.277.67l1.372,1.372a.68.68,0,0,1,.147.648,10.435,10.435,0,0,1-.676,1.38,10.616,10.616,0,0,1-.792,1.192.672.672,0,0,1-.632.2l-1.825-.489a1.089,1.089,0,0,0-.719.095l-2.04,1.177a1.088,1.088,0,0,0-.441.575L15.868,22.3A.686.686,0,0,1,15.381,22.755ZM9.109,12.444a4.71,4.71,0,1,1,4.71,4.71A4.713,4.713,0,0,1,9.109,12.444Z" transform="translate(-2.68 -1.304)" fill="#fff" fill-rule="evenodd"/>
  </g>
</svg>
