<svg xmlns="http://www.w3.org/2000/svg" width="18.828" height="25.104" viewBox="0 0 18.828 25.104">
  <g id="Calulater" transform="translate(-25 -14.561)">
    <path id="Path_134" data-name="Path 134" d="M5.569,25.1h15.69a1.569,1.569,0,0,0,1.569-1.569V1.569A1.569,1.569,0,0,0,21.259,0H5.569A1.569,1.569,0,0,0,4,1.569V23.535A1.569,1.569,0,0,0,5.569,25.1Zm12.552-7.845a1.569,1.569,0,1,1,1.57-1.569A1.569,1.569,0,0,1,18.121,17.259ZM19.69,20.4a1.569,1.569,0,1,1-1.569-1.57A1.569,1.569,0,0,1,19.69,20.4Zm-1.569-7.845a1.569,1.569,0,1,1,1.57-1.569A1.569,1.569,0,0,1,18.121,12.552ZM7.138,6.276V3.138H19.69V6.276Zm6.276,10.983a1.569,1.569,0,1,1,1.57-1.569A1.569,1.569,0,0,1,13.414,17.259ZM14.983,20.4a1.569,1.569,0,1,1-1.569-1.57A1.569,1.569,0,0,1,14.983,20.4Zm-1.569-7.845a1.569,1.569,0,1,1,1.57-1.569A1.569,1.569,0,0,1,13.414,12.552ZM8.707,9.414a1.569,1.569,0,1,1-1.57,1.569A1.569,1.569,0,0,1,8.707,9.414Zm0,4.707a1.569,1.569,0,1,1-1.57,1.569A1.569,1.569,0,0,1,8.707,14.121Zm0,4.707A1.569,1.569,0,1,1,7.137,20.4,1.569,1.569,0,0,1,8.707,18.828Z" transform="translate(21 14.561)" fill="#fff"/>
  </g>
</svg>
