<svg xmlns="http://www.w3.org/2000/svg" width="21.8" height="27.25" viewBox="0 0 21.8 27.25">
  <g id="LogOut" transform="translate(-23 -13.75)">
    <path id="Path_138" data-name="Path 138" d="M4,15.625a1.363,1.363,0,0,0,1.363,1.363H15.7l-3.134,3.12A1.368,1.368,0,1,0,14.5,22.042l5.45-5.45a1.409,1.409,0,0,0,0-1.935L14.5,9.208a1.368,1.368,0,0,0-1.935,1.935l3.134,3.12H5.363A1.363,1.363,0,0,0,4,15.625ZM21.712,2H8.088A4.088,4.088,0,0,0,4,6.088v4.087a1.362,1.362,0,0,0,2.725,0V6.088A1.363,1.363,0,0,1,8.088,4.725H21.712a1.362,1.362,0,0,1,1.362,1.363V25.163a1.362,1.362,0,0,1-1.362,1.362H8.088a1.363,1.363,0,0,1-1.363-1.362V21.075a1.362,1.362,0,0,0-2.725,0v4.088A4.088,4.088,0,0,0,8.088,29.25H21.712A4.087,4.087,0,0,0,25.8,25.163V6.088A4.087,4.087,0,0,0,21.712,2Z" transform="translate(19 11.75)" fill="#fff"/>
  </g>
</svg>
