<svg xmlns="http://www.w3.org/2000/svg" xmlns:xlink="http://www.w3.org/1999/xlink" width="9.311" height="7.5" viewBox="0 0 9.311 7.5">
  <defs>
    <clipPath id="clip-path">
      <path id="arrow-right" d="M4.72.22a.749.749,0,0,0,0,1.06L6.439,3H.75a.75.75,0,0,0,0,1.5H6.439L4.72,6.22A.75.75,0,1,0,5.78,7.28l3.53-3.53L5.78.22A.749.749,0,0,0,4.72.22Z" transform="translate(0.25 0.25)" fill="none"/>
    </clipPath>
  </defs>
  <g id="arrow-right-2" data-name="arrow-right" transform="translate(-0.25 -0.25)">
    <path id="arrow-right-3" data-name="arrow-right" d="M4.72.22a.749.749,0,0,0,0,1.06L6.439,3H.75a.75.75,0,0,0,0,1.5H6.439L4.72,6.22A.75.75,0,1,0,5.78,7.28l3.53-3.53L5.78.22A.749.749,0,0,0,4.72.22Z" transform="translate(0.25 0.25)" fill="none"/>
    <g id="typicon_arrow-right" data-name="typicon / arrow-right" clip-path="url(#clip-path)">
      <g id="_color" data-name="🎨 color" transform="translate(-5 -5)">
        <rect id="Rectangle" width="18" height="18" fill="#2b80ff"/>
      </g>
    </g>
  </g>
</svg>
