<svg xmlns="http://www.w3.org/2000/svg" width="22.281" height="23.603" viewBox="0 0 22.281 23.603">
  <g id="History" transform="translate(-22.999 -15.89)">
    <path id="Path_135" data-name="Path 135" d="M13.04,2A11.8,11.8,0,0,0,4.92,5.269V3.18a1.18,1.18,0,1,0-2.36,0V8.491a1.18,1.18,0,0,0,1.18,1.18H9.051a1.18,1.18,0,0,0,0-2.36H6.218A9.441,9.441,0,1,1,13.04,23.243a1.18,1.18,0,1,0,0,2.36,11.8,11.8,0,0,0,0-23.6Zm0,7.081a1.18,1.18,0,0,0-1.18,1.18V13.8a1.18,1.18,0,0,0,1.18,1.18H15.4a1.18,1.18,0,1,0,0-2.36H14.22v-2.36A1.18,1.18,0,0,0,13.04,9.081Z" transform="translate(20.439 13.89)" fill="#fff"/>
  </g>
</svg>
