<svg xmlns="http://www.w3.org/2000/svg" width="22.281" height="22.281" viewBox="0 0 22.281 22.281">
  <g id="Information" transform="translate(-23 -16)">
    <path id="Path_136" data-name="Path 136" d="M13.141,2A11.141,11.141,0,1,0,24.281,13.141,11.141,11.141,0,0,0,13.141,2Zm0,20.053a8.912,8.912,0,1,1,8.912-8.912A8.912,8.912,0,0,1,13.141,22.053Zm0-9.47A1.114,1.114,0,0,0,12.027,13.7V17.04a1.114,1.114,0,1,0,2.228,0V13.7A1.114,1.114,0,0,0,13.141,12.584Zm0-4.456A1.393,1.393,0,1,0,14.533,9.52,1.393,1.393,0,0,0,13.141,8.127Z" transform="translate(21 14)" fill="#fff"/>
  </g>
</svg>
