<svg xmlns="http://www.w3.org/2000/svg" width="26.802" height="26.94" viewBox="0 0 26.802 26.94">
  <g id="Term" transform="translate(-20.512 -20.162)">
    <path id="Path_153" data-name="Path 153" d="M10.934,2.512a.518.518,0,0,0-.265-.29L8.324,1.067a.688.688,0,0,0-.813.154L2.348,7.847a.392.392,0,0,0-.071.355.493.493,0,0,0,.265.29l2.346,1.15a.692.692,0,0,0,.306.07.627.627,0,0,0,.5-.224l5.163-6.626A.385.385,0,0,0,10.934,2.512Zm4.791,7.121a4.429,4.429,0,0,1,2.687.856L19.9,8.581a.417.417,0,0,0-.189-.645L11.447,3.887,7.115,9.446l4.874,2.394A3.9,3.9,0,0,1,15.726,9.633ZM26.269,12.92,20.216,9.951l-1.037,1.333a2.59,2.59,0,0,1,.454,1.449,2.44,2.44,0,0,1-.206.987l4.5,2.207a.692.692,0,0,0,.306.07.624.624,0,0,0,.5-.22l1.721-2.216A.413.413,0,0,0,26.269,12.92Zm2.517,1.749-1.308-.641c-.006.009-.018.023-.024.033l-1.715,2.207a.088.088,0,0,1-.024.023l1.308.641a.693.693,0,0,0,.306.07.638.638,0,0,0,.5-.22l1.143-1.468A.417.417,0,0,0,28.785,14.669Z" transform="translate(18.251 19.164)" fill="#fff"/>
    <path id="Path_154" data-name="Path 154" d="M22.646,32.467V27.186a2.892,2.892,0,1,0-1.253,0v5.279L16.981,37.68a.626.626,0,0,0,.957.809l3.456-4.083v3.678a.626.626,0,1,0,1.253,0V34.407L26.1,38.489a.626.626,0,0,0,.957-.809Z" transform="translate(11.707 8.391)" fill="#fff"/>
  </g>
</svg>
